<svg width="1440" height="1162" viewBox="0 0 1440 1162" fill="none" xmlns="http://www.w3.org/2000/svg">
<path opacity="0.5" d="M293.931 86.798C173.993 187.32 155.406 377.401 74.1766 517.631C45.8998 566.426 9.36232 610.095 -9.7007 664.227C-53.4662 788.13 6.76763 928.676 87.3883 1027.08C125.832 1074.03 170.736 1117.04 225.066 1136.83C266.845 1152.04 311.644 1152.68 355.621 1153.07L1126.08 1161C1212.11 1161.87 1307.69 1158.73 1369.54 1092.31C1412.16 1046.58 1429.48 979.796 1444.17 916.048C1462.23 837.717 1478.59 752.649 1450.5 678.044C1418.41 592.686 1337.26 544.313 1286.85 470.659C1205.04 351.326 1206.92 170.835 1102.73 75.5701C1054.1 31.1078 989.916 13.6716 927.379 4.95354C809.479 -11.5052 697.802 19.563 582.021 15.2303C483.052 11.5317 376.034 17.9779 293.931 86.798Z" fill="#E7ECFF"/>
</svg>
